HIERARCHY
ROOT Hips
{
	OFFSET -0.001795 -0.223333 0.028219
	CHANNELS 6 Xposition Yposition Zposition Zrotation Yrotation Xrotation 
	JOINT LeftUpLeg
	{
		OFFSET 0.069520 -0.091406 -0.006815
		CHANNELS 3 Zrotation Yrotation Xrotation
		JOINT LeftLeg
		{
			OFFSET 0.034277 -0.375199 -0.004496
			CHANNELS 3 Zrotation Yrotation Xrotation
			JOINT LeftFoot
			{
				OFFSET -0.013596 -0.397961 -0.043693
				CHANNELS 3 Zrotation Yrotation Xrotation
				JOINT LeftToe
				{
					OFFSET 0.026358 -0.055791 0.119288
					CHANNELS 3 Zrotation Yrotation Xrotation
					End Site
					{
						OFFSET 0.000000 0.000000 0.000000
					}
				}
			}
		}
	}
	JOINT RightUpLeg
	{
		OFFSET -0.067670 -0.090522 -0.004320
		CHANNELS 3 Zrotation Yrotation Xrotation
		JOINT RightLeg
		{
			OFFSET -0.038290 -0.382569 -0.008850
			CHANNELS 3 Zrotation Yrotation Xrotation
			JOINT RightFoot
			{
				OFFSET 0.015774 -0.398415 -0.042312
				CHANNELS 3 Zrotation Yrotation Xrotation
				JOINT RightToe
				{
					OFFSET -0.025372 -0.048144 0.123348
					CHANNELS 3 Zrotation Yrotation Xrotation
					End Site
					{
						OFFSET 0.000000 0.000000 0.000000
					}
				}
			}
		}
	}
	JOINT Spine
	{
		OFFSET -0.002533 0.108963 -0.026696
		CHANNELS 3 Zrotation Yrotation Xrotation
		JOINT Spine1
		{
			OFFSET 0.005487 0.135180 0.001092
			CHANNELS 3 Zrotation Yrotation Xrotation
			JOINT Spine2
			{
				OFFSET 0.001457 0.052922 0.025425
				CHANNELS 3 Zrotation Yrotation Xrotation
				JOINT Neck
				{
					OFFSET -0.002778 0.213870 -0.042857
					CHANNELS 3 Zrotation Yrotation Xrotation
					JOINT Head
					{
						OFFSET 0.005152 0.064970 0.051349
						CHANNELS 3 Zrotation Yrotation Xrotation
						End Site
						{
							OFFSET 0.000000 0.000000 0.000000
						}
					}
				}
				JOINT LeftShoulder
				{
					OFFSET 0.078845 0.121749 -0.034090
					CHANNELS 3 Zrotation Yrotation Xrotation
					JOINT LeftArm
					{
						OFFSET 0.090977 0.030469 -0.008868
						CHANNELS 3 Zrotation Yrotation Xrotation
						JOINT LeftForeArm
						{
							OFFSET 0.259612 -0.012772 -0.027456
							CHANNELS 3 Zrotation Yrotation Xrotation
							JOINT LeftHand
							{
								OFFSET 0.249234 0.008986 -0.001171
								CHANNELS 3 Zrotation Yrotation Xrotation
								End Site
								{
									OFFSET 0.000000 0.000000 0.000000
								}
							}
						}
					}
				}
				JOINT RightShoulder
				{
					OFFSET -0.081759 0.118833 -0.038615
					CHANNELS 3 Zrotation Yrotation Xrotation
					JOINT RightArm
					{
						OFFSET -0.096012 0.032551 -0.009143
						CHANNELS 3 Zrotation Yrotation Xrotation
						JOINT RightForeArm
						{
							OFFSET -0.253742 -0.013329 -0.021401
							CHANNELS 3 Zrotation Yrotation Xrotation
							JOINT RightHand
							{
								OFFSET -0.255298 0.007772 -0.005559
								CHANNELS 3 Zrotation Yrotation Xrotation
								End Site
								{
									OFFSET 0.000000 0.000000 0.000000
								}
							}
						}
					}
				}
			}
		}
	}
}
MOTION
Frames: 10
Frame Time: 0.050000
0.000000 0.935757 0.000000 -0.777634 -19.735938 -0.221600 6.273070 0.112806 -3.544843 -7.383114 5.525959 34.990181 12.029190 22.328309 14.907178 0.000000 0.000000 0.000000 -1.093155 1.758182 -15.884520 7.378505 -0.042786 19.488884 -7.066096 -17.701646 3.477782 0.000000 0.000000 0.000000 8.871307 -1.049296 10.961767 -0.720153 0.501995 -25.488492 -4.720491 3.819379 26.088482 7.811500 -3.569850 -30.195769 0.000000 0.000000 0.000000 1.633927 -17.544723 5.973657 -39.497858 -35.434471 5.773170 159.962207 -75.123988 -140.940599 0.000000 0.000000 0.000000 7.534313 3.656648 0.243703 50.087837 29.887509 4.859912 -168.689691 82.039398 -164.758499 0.000000 0.000000 0.000000 
-0.007564 0.939784 0.013795 -1.554210 -20.967404 0.216451 6.677834 0.093548 -7.960335 -9.494792 7.411988 37.244677 14.055247 25.585135 13.080603 0.000000 0.000000 0.000000 0.450837 1.539859 -13.554701 5.983746 0.232646 18.128329 -7.329168 -17.805337 2.613463 0.000000 0.000000 0.000000 9.166219 -1.107775 11.594450 0.217189 0.480663 -28.066781 -4.273998 4.930168 27.414407 7.116152 -2.932175 -32.319102 0.000000 0.000000 0.000000 4.410835 -16.739225 5.062973 -42.764623 -36.737117 7.063700 164.454022 -73.386074 -144.521954 0.000000 0.000000 0.000000 6.118485 4.492693 0.777320 49.561337 31.838217 5.424510 -157.079194 81.993938 -151.225443 0.000000 0.000000 0.000000 
-0.014097 0.942737 0.027063 -0.478683 -20.924178 -0.810472 6.323310 0.062204 -12.283717 -10.409028 8.123327 38.258096 13.943847 25.752925 10.588736 0.000000 0.000000 0.000000 -0.542142 1.061317 -10.366265 4.851636 0.317161 16.223675 -6.682201 -16.173490 2.175131 0.000000 0.000000 0.000000 8.670170 -1.021701 11.317016 0.082729 0.351603 -26.046558 -3.675385 5.751310 26.331813 6.902925 -2.723917 -31.856137 0.000000 0.000000 0.000000 2.394283 -17.081274 5.631262 -40.798713 -37.286404 6.685049 166.179688 -69.948533 -146.227282 0.000000 0.000000 0.000000 6.952081 4.481108 0.763750 48.164279 33.417932 6.038713 -151.468304 82.106294 -144.534063 0.000000 0.000000 0.000000 
-0.020022 0.944086 0.040558 0.210010 -20.746764 -1.507698 5.432803 -0.068818 -14.670216 -10.791535 7.123414 33.630540 14.875208 27.349328 9.652006 0.000000 0.000000 0.000000 -1.321937 0.766566 -7.911177 4.333530 0.253786 14.051048 -6.804159 -16.250126 2.068823 0.000000 0.000000 0.000000 8.902373 -1.088430 12.229812 0.122103 0.359779 -26.311098 -4.286047 7.229140 26.325066 6.094210 -1.904837 -33.143263 0.000000 0.000000 0.000000 3.208019 -16.316727 5.199522 -42.082243 -38.591160 7.376643 171.208349 -67.328902 -152.935726 0.000000 0.000000 0.000000 7.744303 3.454687 0.454297 47.339891 35.322187 6.751814 -149.149392 81.369231 -140.449946 0.000000 0.000000 0.000000 
-0.025607 0.946003 0.054316 0.736584 -20.985103 -2.370576 4.753247 -0.161584 -16.305558 -11.014016 5.828872 27.233562 15.148893 27.589536 9.888204 0.000000 0.000000 0.000000 -1.807917 0.513216 -5.247818 3.839647 0.229896 12.366363 -6.290351 -14.924099 1.673012 0.000000 0.000000 0.000000 8.814680 -1.107199 13.084207 -0.714453 0.537736 -26.251702 -3.353512 8.103130 26.676009 6.173648 -1.811424 -33.434872 0.000000 0.000000 0.000000 3.525161 -15.023930 4.729519 -42.748484 -38.749626 7.525607 171.828807 -66.324821 -153.862332 0.000000 0.000000 0.000000 7.109706 4.006272 0.810405 46.965311 36.378264 7.114568 -149.755670 80.689639 -140.242336 0.000000 0.000000 0.000000 
-0.031019 0.946540 0.068726 0.904959 -20.682689 -2.055799 4.842163 -0.157511 -16.551703 -11.145346 4.067268 17.659698 17.243505 30.347487 11.722324 0.000000 0.000000 0.000000 -2.145671 0.374382 -3.423811 3.783102 0.108523 10.267216 -6.147296 -14.406991 1.260357 0.000000 0.000000 0.000000 8.654854 -1.108508 13.020816 -0.867235 0.615840 -27.015809 -2.040605 9.770384 27.102381 6.276300 -1.551086 -33.679787 0.000000 0.000000 0.000000 2.958795 -15.005317 4.831403 -44.713795 -37.890741 7.322262 174.679525 -65.117929 -158.416936 0.000000 0.000000 0.000000 7.560182 2.745449 0.453961 45.739976 36.368955 6.903787 -174.331454 81.518871 -168.096647 0.000000 0.000000 0.000000 
-0.035834 0.945788 0.083818 1.531516 -19.641321 -2.934752 3.788049 -0.392700 -15.372762 -9.291223 2.440267 10.456683 16.274800 28.368386 13.684419 0.000000 0.000000 0.000000 -3.209531 0.228731 -0.477547 4.437867 -0.094740 8.109767 -6.031063 -13.996962 0.938471 0.000000 0.000000 0.000000 7.869628 -1.114326 14.403452 -0.158522 0.541924 -27.761399 -2.838543 10.178702 27.335348 8.124152 -2.338591 -33.677449 0.000000 0.000000 0.000000 1.984933 -14.071572 4.661204 -46.321151 -36.037543 6.695335 -178.793119 -67.005783 -169.402291 0.000000 0.000000 0.000000 8.530072 2.217844 0.288708 44.665423 36.793073 6.869759 168.241356 80.647195 171.939408 0.000000 0.000000 0.000000 
-0.040114 0.942534 0.099888 1.386697 -18.989629 -2.900931 3.840689 -0.401425 -14.812080 -8.514727 1.912072 7.420984 16.459554 28.252193 15.281740 0.000000 0.000000 0.000000 -3.714954 0.195556 0.742200 5.135566 -0.204143 7.752552 -6.319277 -14.352844 0.259029 0.000000 0.000000 0.000000 7.516009 -1.095579 14.390164 -1.214643 0.645691 -25.810257 -1.370712 10.978356 25.546232 7.893272 -2.072950 -32.570839 0.000000 0.000000 0.000000 0.773100 -14.858699 5.060846 -47.238682 -33.712798 5.864203 -166.315891 -69.617590 171.065315 0.000000 0.000000 0.000000 9.665653 2.217046 0.350986 43.300867 34.367846 5.890138 140.484234 79.105190 138.874837 0.000000 0.000000 0.000000 
-0.043378 0.938217 0.117097 0.464989 -19.468855 -2.882405 4.366842 -0.289201 -14.071782 -8.055739 1.865240 8.071148 17.325189 28.416456 19.065547 0.000000 0.000000 0.000000 -3.235731 0.129055 1.470722 5.685496 -0.231037 8.912271 -7.043010 -15.101282 -1.692884 0.000000 0.000000 0.000000 7.810543 -1.114295 14.378572 -0.813481 0.500900 -24.875891 -1.429408 11.100562 25.764732 8.016853 -2.149751 -32.662969 0.000000 0.000000 0.000000 0.220342 -13.270897 4.595360 -48.656353 -29.347872 4.188362 -154.026581 -71.172661 154.642118 0.000000 0.000000 0.000000 10.264384 2.240184 0.314126 42.629338 33.341338 5.346118 120.691075 77.736752 114.859344 0.000000 0.000000 0.000000 
-0.045154 0.933654 0.135506 0.456375 -18.935448 -3.181344 4.120438 -0.322389 -12.263221 -8.510537 1.986422 8.280438 18.903412 30.607306 19.443460 0.000000 0.000000 0.000000 -3.958733 0.162850 1.867277 6.215723 -0.261241 10.909523 -7.252942 -15.127625 -3.040984 0.000000 0.000000 0.000000 7.518039 -1.091075 14.372349 -0.902807 0.503948 -24.422588 -1.374201 11.872189 25.247491 9.086149 -2.465717 -32.892059 0.000000 0.000000 0.000000 -1.049478 -13.300588 4.691281 -48.735259 -24.726797 2.122410 -130.991148 -72.047373 124.437610 0.000000 0.000000 0.000000 12.138099 1.508479 0.049208 42.089081 30.185552 4.150658 102.923555 72.332996 90.377610 0.000000 0.000000 0.000000 
